<svg width="40" height="40" viewBox="0 0 40 40" fill="none" xmlns="http://www.w3.org/2000/svg">
<g clip-path="url(#clip0_633_1458)">
<circle cx="20" cy="20" r="20" fill="#4E4EBC"/>
<path d="M30.5768 12.9622C30.7199 13.0452 30.8387 13.1646 30.9211 13.3084C31.0036 13.4523 31.0468 13.6154 31.0465 13.7813V19.1561H30.9888C29.6552 19.1565 28.3346 18.8928 27.1025 18.3802C25.8703 17.8675 24.7509 17.1159 23.8082 16.1684C22.8654 15.2208 22.1178 14.0959 21.6082 12.8579C21.0985 11.62 20.8368 10.2932 20.8379 8.95357C20.8378 8.78727 20.8814 8.62389 20.9642 8.47988C21.047 8.33588 21.1662 8.21634 21.3096 8.13329C21.453 8.05025 21.6157 8.00663 21.7813 8.00684C21.9468 8.00704 22.1094 8.05107 22.2526 8.13448L30.5768 12.9622Z" fill="white"/>
<path d="M31.0465 19.9756V25.3504C31.0468 25.5163 31.0036 25.6795 30.9211 25.8233C30.8387 25.9671 30.7199 26.0865 30.5768 26.1695L22.2526 30.9973C22.1112 31.0806 21.9506 31.1254 21.7866 31.1271C21.6226 31.1288 21.4611 31.0873 21.318 31.0068C21.175 30.9263 21.0554 30.8096 20.9711 30.6683C20.8869 30.527 20.841 30.366 20.8379 30.2013V30.1868C20.8375 28.8458 21.1002 27.5178 21.6109 26.2787C22.1216 25.0397 22.8704 23.9138 23.8144 22.9655C24.7584 22.0173 25.8792 21.2651 27.1127 20.7521C28.3462 20.2391 29.6682 19.9752 31.0032 19.9756H31.0465Z" fill="white"/>
<path d="M19.2114 8.93315C19.2126 10.2747 18.9505 11.6033 18.4401 12.843C17.9297 14.0828 17.181 15.2093 16.237 16.1582C15.2929 17.107 14.1718 17.8597 12.938 18.3731C11.7041 18.8865 10.3816 19.1505 9.0461 19.1502H9V13.7812C8.99966 13.6152 9.0429 13.4521 9.12536 13.3083C9.20782 13.1645 9.32658 13.045 9.46966 12.9621L17.8111 8.12564C17.9531 8.04328 18.1142 7.99995 18.2782 8C18.4421 8.00005 18.6032 8.04348 18.7452 8.12593C18.8871 8.20838 19.0049 8.32693 19.0868 8.46965C19.1687 8.61237 19.2116 8.77423 19.2114 8.93894V8.93315Z" fill="white"/>
<path d="M19.2114 30.1868V30.2013C19.2084 30.366 19.1624 30.527 19.0782 30.6683C18.9939 30.8096 18.8744 30.9263 18.7313 31.0068C18.5882 31.0873 18.4267 31.1287 18.2627 31.1271C18.0988 31.1254 17.9381 31.0806 17.7967 30.9972L9.46966 26.1695C9.32658 26.0865 9.20782 25.9671 9.12536 25.8233C9.0429 25.6795 8.99966 25.5163 9 25.3504V19.9756H9.0461C11.7421 19.9756 14.3277 21.0514 16.2341 22.9664C18.1404 24.8814 19.2114 27.4786 19.2114 30.1868Z" fill="white"/>
</g>
<defs>
<clipPath id="clip0_633_1458">
<rect width="40" height="40" fill="white"/>
</clipPath>
</defs>
</svg>
