<svg width="153" height="34" viewBox="0 0 153 34" fill="none" xmlns="http://www.w3.org/2000/svg">
<path d="M28.0211 6.44368C28.2069 6.55144 28.3611 6.70653 28.4682 6.89329C28.5753 7.08006 28.6315 7.29189 28.631 7.50741V14.4874H28.5562C26.8242 14.4879 25.1092 14.1455 23.5091 13.4797C21.909 12.814 20.4552 11.8379 19.2309 10.6074C18.0066 9.37682 17.0357 7.91593 16.3739 6.30823C15.712 4.70053 15.3721 2.97755 15.3735 1.23779C15.3735 1.02182 15.4301 0.809642 15.5376 0.622629C15.6451 0.435616 15.7998 0.280373 15.9861 0.172524C16.1724 0.0646757 16.3837 0.00803194 16.5987 0.00830174C16.8137 0.00857154 17.0248 0.0657456 17.2108 0.174061L28.0211 6.44368Z" fill="#4E4EBC"/>
<path d="M28.631 15.5518V22.5318C28.6315 22.7473 28.5753 22.9592 28.4682 23.1459C28.3611 23.3327 28.2069 23.4878 28.0211 23.5955L17.2108 29.8652C17.0272 29.9735 16.8185 30.0316 16.6056 30.0338C16.3927 30.0359 16.1829 29.9821 15.9971 29.8776C15.8113 29.773 15.656 29.6215 15.5466 29.438C15.4372 29.2544 15.3775 29.0454 15.3735 28.8315V28.8127C15.373 27.0711 15.7142 25.3465 16.3774 23.7374C17.0407 22.1283 18.0131 20.6662 19.239 19.4347C20.465 18.2032 21.9205 17.2264 23.5224 16.5602C25.1243 15.8939 26.8411 15.5513 28.5749 15.5518H28.631Z" fill="#4E4EBC"/>
<path d="M13.2612 1.21185C13.2627 2.95407 12.9223 4.67949 12.2594 6.28947C11.5966 7.89945 10.6244 9.3624 9.39836 10.5947C8.17231 11.827 6.71648 12.8044 5.11411 13.4711C3.51174 14.1378 1.79426 14.4808 0.0598739 14.4803H2.61804e-06V7.50777C-0.000441841 7.29224 0.0557124 7.08041 0.162799 6.89365C0.269885 6.70689 0.424117 6.5518 0.609929 6.44404L11.4426 0.163161C11.6271 0.0562082 11.8363 -6.712e-05 12.0492 6.0078e-08C12.2621 6.72402e-05 12.4713 0.0564704 12.6557 0.163539C12.84 0.270609 12.993 0.424567 13.0993 0.609915C13.2056 0.795263 13.2615 1.00547 13.2612 1.21937V1.21185Z" fill="#4E4EBC"/>
<path d="M13.2612 28.8127V28.8315C13.2572 29.0454 13.1975 29.2544 13.0881 29.438C12.9787 29.6215 12.8234 29.773 12.6376 29.8776C12.4519 29.9821 12.2421 30.0359 12.0291 30.0338C11.8162 30.0316 11.6076 29.9735 11.4239 29.8652L0.609929 23.5955C0.424117 23.4878 0.269885 23.3327 0.162799 23.1459C0.0557124 22.9591 -0.000441841 22.7473 2.61804e-06 22.5318V15.5518H0.0598739C3.56108 15.5518 6.91889 16.9489 9.39462 19.4358C11.8703 21.9227 13.2612 25.2957 13.2612 28.8127Z" fill="#4E4EBC"/>
<path d="M153 16.2427V26.7959H151.277V16.2427H153Z" fill="#1C1C44"/>
<path d="M147.071 24.6398H142.672L141.916 26.796H140.117L143.881 16.2275H145.876L149.64 26.796H147.826L147.071 24.6398ZM146.587 23.2276L144.879 18.323L143.156 23.2276H146.587Z" fill="#1C1C44"/>
<path d="M37.6284 7.11616V5.19543C37.6294 4.96545 37.7208 4.74518 37.8827 4.58256C38.0446 4.41994 38.2638 4.32814 38.4928 4.32715H54.3433C54.5634 4.32814 54.7741 4.41637 54.9296 4.57265C55.0852 4.72892 55.1731 4.94059 55.174 5.1616V7.11616C55.1731 7.34614 55.0817 7.56641 54.9198 7.72903C54.7579 7.89165 54.5386 7.98345 54.3097 7.98444H48.768C48.698 7.98394 48.6287 7.9974 48.564 8.02405C48.4993 8.05069 48.4406 8.08999 48.3911 8.13965C48.3417 8.18931 48.3026 8.24835 48.276 8.31334C48.2495 8.37832 48.2361 8.44795 48.2366 8.51818V25.7597C48.2366 25.9899 48.1455 26.2108 47.9834 26.3736C47.8213 26.5365 47.6015 26.6279 47.3722 26.6279H45.4601C45.3468 26.6279 45.2346 26.6055 45.1299 26.5618C45.0253 26.5181 44.9302 26.4541 44.8503 26.3734C44.7703 26.2927 44.707 26.197 44.664 26.0917C44.6209 25.9863 44.599 25.8735 44.5995 25.7597V8.51818C44.5995 8.37662 44.5435 8.24086 44.4439 8.14077C44.3442 8.04067 44.2091 7.98444 44.0682 7.98444H38.4928C38.2638 7.98345 38.0446 7.89165 37.8827 7.72903C37.7208 7.56641 37.6294 7.34614 37.6284 7.11616Z" fill="#4E4EBC"/>
<path d="M69.7545 18.8784C69.7552 20.4717 69.2855 22.0294 68.4049 23.3546C67.5242 24.6797 66.2721 25.7127 64.8069 26.323C63.3417 26.9332 61.7293 27.0933 60.1735 26.7829C58.6178 26.4725 57.1886 25.7056 56.0668 24.5793C54.945 23.4529 54.1809 22.0176 53.8712 20.455C53.5614 18.8924 53.72 17.2726 54.3268 15.8005C54.9337 14.3284 55.9614 13.0702 57.2802 12.1849C58.599 11.2997 60.1495 10.8271 61.7356 10.8271C63.8617 10.8271 65.9008 11.6753 67.4045 13.1851C68.9082 14.6949 69.7535 16.7427 69.7545 18.8784ZM61.7356 23.2762C62.6015 23.2762 63.448 23.0182 64.1679 22.535C64.8879 22.0518 65.449 21.3649 65.7804 20.5614C66.1117 19.7578 66.1984 18.8735 66.0295 18.0205C65.8606 17.1674 65.4436 16.3838 64.8313 15.7687C64.2191 15.1537 63.439 14.7349 62.5897 14.5652C61.7405 14.3955 60.8602 14.4826 60.0602 14.8154C59.2603 15.1483 58.5765 15.712 58.0955 16.4352C57.6144 17.1584 57.3576 18.0086 57.3576 18.8784C57.3596 20.0449 57.8213 21.1631 58.6417 21.9886C59.462 22.8141 60.5744 23.2797 61.7356 23.2837V23.2762Z" fill="#4E4EBC"/>
<path d="M72.9062 11.1427H75.5255C75.6585 11.1427 75.786 11.1958 75.8801 11.2902C75.9741 11.3847 76.0269 11.5128 76.0269 11.6464V13.1273C76.6061 12.4228 77.3307 11.8529 78.1505 11.4571C78.9703 11.0612 79.8659 10.8488 80.7754 10.8345C85.217 10.8345 88.42 14.4279 88.42 18.8858C88.42 23.3437 85.217 26.937 80.7754 26.937C79.9255 26.9233 79.0869 26.7386 78.3092 26.3939C77.5316 26.0491 76.8306 25.5513 76.2477 24.9299C76.2304 24.911 76.2077 24.8977 76.1828 24.892C76.1579 24.8862 76.1318 24.8881 76.1079 24.8974C76.0841 24.9067 76.0636 24.9231 76.0492 24.9443C76.0347 24.9655 76.027 24.9906 76.0269 25.0163V33.4961C76.0269 33.6297 75.9741 33.7578 75.8801 33.8522C75.786 33.9467 75.6585 33.9998 75.5255 33.9998H72.9062C72.7732 33.9998 72.6457 33.9467 72.5516 33.8522C72.4576 33.7578 72.4048 33.6297 72.4048 33.4961V11.6464C72.4048 11.5128 72.4576 11.3847 72.5516 11.2902C72.6457 11.1958 72.7732 11.1427 72.9062 11.1427ZM76.4722 16.935C76.0749 17.7629 75.9437 18.6945 76.0968 19.6008C76.2499 20.507 76.6797 21.3429 77.3267 21.9929C77.9738 22.6428 78.806 23.0746 79.7081 23.2284C80.6102 23.3822 81.5376 23.2504 82.3619 22.8513C83.2526 22.4465 83.9667 21.7305 84.3713 20.8366C84.7662 20.0086 84.8955 19.0779 84.7415 18.1729C84.5875 17.2679 84.1577 16.4332 83.5114 15.784C82.8651 15.1348 82.0342 14.7031 81.1333 14.5484C80.2324 14.3936 79.3059 14.5236 78.4816 14.9203C77.5895 15.323 76.8748 16.0396 76.4722 16.935Z" fill="#4E4EBC"/>
<path d="M98.2681 10.8345C102.646 10.8345 105.64 14.0557 105.64 18.6677C105.635 19.0447 105.61 19.4211 105.565 19.7954C105.544 20.0011 105.447 20.1916 105.295 20.3304C105.142 20.4692 104.944 20.5464 104.738 20.5471H94.0061C94.6235 22.4678 96.3485 23.6443 98.631 23.6443C99.8098 23.6656 100.963 23.2971 101.913 22.5956C102.072 22.4689 102.271 22.4051 102.474 22.4161C102.677 22.4272 102.868 22.5125 103.013 22.6558L104.169 23.8172C104.25 23.8993 104.314 23.9974 104.356 24.1053C104.398 24.2132 104.417 24.3286 104.412 24.4443C104.408 24.56 104.379 24.6735 104.329 24.7778C104.279 24.882 104.208 24.9747 104.12 25.0501C102.57 26.3341 100.61 27.011 98.6011 26.9558C93.9462 26.9558 90.3989 23.4564 90.3989 18.9045C90.3989 14.3527 93.8003 10.8345 98.2681 10.8345ZM93.9537 17.6792H102.216C102.12 16.6865 101.653 15.7672 100.909 15.1061C100.166 14.445 99.2008 14.0912 98.2082 14.1159C97.1881 14.085 96.192 14.4304 95.4081 15.0869C94.6243 15.7434 94.1069 16.6656 93.9537 17.6792Z" fill="#4E4EBC"/>
<path d="M108.289 25.7947V11.9775C108.288 11.8681 108.309 11.7597 108.35 11.6584C108.392 11.5572 108.453 11.4652 108.529 11.3877C108.606 11.3101 108.698 11.2486 108.798 11.2066C108.899 11.1646 109.007 11.143 109.116 11.143H111.095C111.204 11.1425 111.312 11.1638 111.413 11.2055C111.514 11.2473 111.606 11.3088 111.683 11.3863C111.761 11.4639 111.822 11.5561 111.863 11.6576C111.905 11.759 111.926 11.8678 111.926 11.9775V12.9097C112.864 11.8044 114.177 11.0879 115.611 10.8987C115.729 10.8838 115.849 10.8942 115.962 10.9293C116.075 10.9644 116.18 11.0235 116.269 11.1024C116.358 11.1814 116.429 11.2785 116.478 11.3873C116.526 11.496 116.551 11.614 116.551 11.7332V14.3042C116.419 14.2761 116.285 14.2648 116.15 14.2703C113.838 14.2703 111.926 15.9129 111.926 18.2659V25.7834C111.926 25.8931 111.905 26.0019 111.863 26.1033C111.822 26.2048 111.761 26.297 111.683 26.3746C111.606 26.4522 111.514 26.5136 111.413 26.5554C111.312 26.5971 111.204 26.6184 111.095 26.6179H109.116C108.898 26.6179 108.688 26.5314 108.533 26.3772C108.379 26.2231 108.291 26.0137 108.289 25.7947Z" fill="#4E4EBC"/>
<path d="M125.001 10.8345C125.903 10.8518 126.792 11.0591 127.61 11.443C128.428 11.8269 129.157 12.379 129.749 13.0634V11.9771C129.749 11.8676 129.771 11.759 129.812 11.6578C129.854 11.5566 129.915 11.4646 129.993 11.3871C130.07 11.3096 130.161 11.2481 130.262 11.2062C130.363 11.1643 130.471 11.1427 130.58 11.1427H132.552C132.661 11.1427 132.769 11.1643 132.869 11.2063C132.97 11.2483 133.061 11.3098 133.138 11.3873C133.215 11.4649 133.276 11.5569 133.317 11.6581C133.358 11.7593 133.379 11.8677 133.379 11.9771V25.7943C133.379 25.9037 133.358 26.0122 133.317 26.1134C133.276 26.2146 133.215 26.3066 133.138 26.3842C133.061 26.4617 132.97 26.5232 132.869 26.5652C132.769 26.6072 132.661 26.6288 132.552 26.6288H130.572C130.463 26.6288 130.355 26.6072 130.255 26.5653C130.154 26.5233 130.062 26.4619 129.985 26.3844C129.908 26.3069 129.847 26.2149 129.805 26.1137C129.763 26.0124 129.742 25.9039 129.742 25.7943V24.6667C129.162 25.37 128.437 25.9387 127.617 26.3339C126.797 26.729 125.902 26.9412 124.993 26.9558C120.585 26.9558 117.349 23.3324 117.349 18.9045C117.349 14.4767 120.578 10.8345 125.001 10.8345ZM121.109 17.8746C120.89 18.8066 120.98 19.7848 121.365 20.6609C121.75 21.537 122.408 22.2633 123.241 22.7294C124.073 23.1956 125.035 23.3763 125.979 23.2442C126.923 23.112 127.798 22.6742 128.472 21.9971C129.146 21.32 129.582 20.4406 129.714 19.4923C129.845 18.5439 129.665 17.5783 129.201 16.7419C128.737 15.9055 128.014 15.2439 127.142 14.8576C126.27 14.4712 125.296 14.381 124.368 14.6007C123.576 14.7892 122.852 15.1952 122.277 15.7734C121.701 16.3515 121.297 17.079 121.109 17.8746Z" fill="#4E4EBC"/>
</svg>
