
<svg width="49" height="52" viewBox="0 0 49 52" fill="none" xmlns="http://www.w3.org/2000/svg">
    <path d="M47.8008 10.9927C48.1178 11.1765 48.3809 11.441 48.5636 11.7596C48.7463 12.0782 48.842 12.4396 48.8413 12.8073V24.7144H48.7136C45.7591 24.7152 42.8335 24.1311 40.1039 22.9953C37.3743 21.8596 34.8943 20.1946 32.8058 18.0954C30.7173 15.9962 29.0611 13.5041 27.932 10.7616C26.8029 8.01904 26.2231 5.07983 26.2256 2.11202C26.2255 1.7436 26.322 1.38164 26.5055 1.06262C26.6889 0.743598 26.9528 0.478771 27.2706 0.294794C27.5883 0.110817 27.9487 0.0141898 28.3155 0.0146501C28.6823 0.0151103 29.0424 0.112643 29.3597 0.297416L47.8008 10.9927Z" fill="#001400"/>
    <path d="M48.8413 26.5303V38.4374C48.842 38.8051 48.7462 39.1664 48.5636 39.485C48.3809 39.8036 48.1178 40.0682 47.8008 40.252L29.3597 50.9473C29.0465 51.132 28.6906 51.2312 28.3273 51.2349C27.9641 51.2386 27.6062 51.1467 27.2893 50.9684C26.9724 50.7901 26.7074 50.5316 26.5208 50.2185C26.3342 49.9054 26.2324 49.5488 26.2256 49.184V49.1519C26.2247 46.1809 26.8067 43.2389 27.9381 40.494C29.0695 37.749 30.7283 35.2549 32.8197 33.1541C34.911 31.0533 37.3939 29.3871 40.1265 28.2505C42.8592 27.114 45.7879 26.5294 48.7455 26.5303H48.8413Z" fill="#001400"/>
    <path d="M22.622 2.06728C22.6245 5.03929 22.0439 7.98267 20.9132 10.7291C19.7825 13.4755 18.124 15.9712 16.0325 18.0733C13.941 20.1754 11.4575 21.8428 8.72407 22.9802C5.99062 24.1175 3.0608 24.7025 0.102138 24.7016H4.46606e-06V12.8074C-0.000753729 12.4397 0.0950387 12.0784 0.277715 11.7598C0.460392 11.4412 0.723493 11.1766 1.04047 10.9928L19.5198 0.278333C19.8344 0.0958846 20.1913 -0.000114499 20.5545 1.02486e-07C20.9178 0.000114704 21.2746 0.0963319 21.5891 0.278979C21.9036 0.461626 22.1646 0.724261 22.3459 1.04044C22.5273 1.35663 22.6225 1.71521 22.622 2.0801V2.06728Z" fill="#001400"/>
    <path d="M22.622 49.1519V49.1839C22.6152 49.5488 22.5134 49.9054 22.3268 50.2185C22.1402 50.5316 21.8753 50.7901 21.5583 50.9684C21.2414 51.1467 20.8835 51.2386 20.5203 51.2349C20.1571 51.2311 19.8011 51.132 19.4879 50.9473L1.04047 40.252C0.723494 40.0682 0.460392 39.8036 0.277716 39.485C0.0950388 39.1664 -0.000753729 38.8051 4.46606e-06 38.4374V26.5303H0.102138C6.07479 26.5303 11.8028 28.9136 16.0261 33.156C20.2494 37.3984 22.622 43.1523 22.622 49.1519Z" fill="#001400"/>
</svg>
