
<svg width="24" height="26" viewBox="0 0 24 26" fill="none" xmlns="http://www.w3.org/2000/svg">
    <path fill-rule="evenodd" clip-rule="evenodd" d="M12 0C11.6464 0 11.3072 0.136964 11.0572 0.380761C10.8071 0.624558 10.6667 0.955218 10.6667 1.3V3.9H2.66667C1.95942 3.9 1.28115 4.17393 0.781048 4.66152C0.280951 5.14912 0 5.81044 0 6.5V23.4C0 24.0896 0.280951 24.7509 0.781048 25.2385C1.28115 25.7261 1.95942 26 2.66667 26H21.3333C22.0406 26 22.7189 25.7261 23.219 25.2385C23.719 24.7509 24 24.0896 24 23.4V6.5C24 5.81044 23.719 5.14912 23.219 4.66152C22.7189 4.17393 22.0406 3.9 21.3333 3.9H13.3333V1.3C13.3333 0.955218 13.1929 0.624558 12.9428 0.380761C12.6928 0.136964 12.3536 0 12 0ZM13.3333 3.9V15.3764L15.7707 13C16.0207 12.7561 16.3598 12.619 16.7135 12.6188C17.0672 12.6187 17.4065 12.7556 17.6567 12.9993C17.9069 13.2431 18.0475 13.5738 18.0476 13.9186C18.0477 14.2635 17.9073 14.5943 17.6573 14.8382L13.1773 19.2049C12.8648 19.5093 12.4411 19.6804 11.9993 19.6804C11.5576 19.6804 11.1339 19.5093 10.8213 19.2049L6.34267 14.8382C6.21887 14.7174 6.12069 14.574 6.05373 14.4163C5.98677 14.2585 5.95233 14.0894 5.9524 13.9186C5.95246 13.7479 5.98701 13.5788 6.05409 13.4211C6.12117 13.2634 6.21945 13.12 6.34333 12.9993C6.46721 12.8787 6.61426 12.7829 6.77609 12.7176C6.93791 12.6523 7.11134 12.6188 7.28647 12.6188C7.4616 12.6189 7.63501 12.6526 7.79678 12.718C7.95856 12.7834 8.10554 12.8792 8.22933 13L10.6667 15.3764V3.9H13.3333Z" fill="#1473E6"/>
</svg>
