
      <svg width="31" height="32" viewBox="0 0 31 32" fill="none" xmlns="http://www.w3.org/2000/svg">
        <path
          d="M15.5 0.5C13.4645 0.5 11.449 0.910873 9.56841 1.70916C7.68786 2.50745 5.97915 3.67751 4.53984 5.15256C1.63303 8.13154 0 12.1719 0 16.3848C0 23.4059 4.4485 29.3627 10.602 31.4754C11.377 31.6025 11.625 31.11 11.625 30.6812V27.9966C7.3315 28.9497 6.417 25.8681 6.417 25.8681C5.704 24.0254 4.6965 23.533 4.6965 23.533C3.286 22.5481 4.805 22.5799 4.805 22.5799C6.355 22.6911 7.1765 24.216 7.1765 24.216C8.525 26.6305 10.8035 25.9157 11.687 25.5345C11.8265 24.502 12.2295 23.803 12.6635 23.4059C9.2225 23.0088 5.611 21.6427 5.611 15.5906C5.611 13.8274 6.2 12.4136 7.2075 11.2858C7.0525 10.8887 6.51 9.23665 7.3625 7.0922C7.3625 7.0922 8.6645 6.66331 11.625 8.71245C12.8495 8.36299 14.1825 8.18825 15.5 8.18825C16.8175 8.18825 18.1505 8.36299 19.375 8.71245C22.3355 6.66331 23.6375 7.0922 23.6375 7.0922C24.49 9.23665 23.9475 10.8887 23.7925 11.2858C24.8 12.4136 25.389 13.8274 25.389 15.5906C25.389 21.6586 21.762 22.9929 18.3055 23.39C18.8635 23.8825 19.375 24.8514 19.375 26.3287V30.6812C19.375 31.11 19.623 31.6184 20.4135 31.4754C26.567 29.3468 31 23.4059 31 16.3848C31 14.2988 30.5991 12.2332 29.8201 10.306C29.0412 8.37873 27.8995 6.6276 26.4602 5.15256C25.0208 3.67751 23.3121 2.50745 21.4316 1.70916C19.551 0.910873 17.5355 0.5 15.5 0.5Z"
          fill="black"
        />
      </svg>
