
      <svg width="34" height="34" viewBox="0 0 34 34" fill="none" xmlns="http://www.w3.org/2000/svg">
        <g clip-path="url(#clip0_488_824)">
          <path
            d="M30.823 1.27356H4.0105C3.40214 1.26737 2.81617 1.50276 2.38117 1.9281C1.94617 2.35343 1.69767 2.93396 1.69019 3.54231V30.4631C1.69902 31.0705 1.94812 31.6497 2.38297 32.074C2.81783 32.4982 3.40302 32.7329 4.0105 32.7267H30.823C31.4314 32.7315 32.017 32.4953 32.4517 32.0697C32.8865 31.6441 33.1352 31.0637 33.1433 30.4554V3.53457C33.1325 2.92801 32.8826 2.35025 32.4482 1.92687C32.0137 1.50349 31.4296 1.2687 30.823 1.27356Z"
            fill="#0076B2"
          />
          <path
            d="M6.34635 13.0635H11.0153V28.0862H6.34635V13.0635ZM8.68213 5.58691C9.21764 5.58691 9.74112 5.74574 10.1863 6.04331C10.6316 6.34088 10.9785 6.76381 11.1833 7.25861C11.3882 7.7534 11.4416 8.29783 11.337 8.82301C11.2323 9.34819 10.9742 9.83053 10.5954 10.209C10.2165 10.5875 9.73395 10.8451 9.20866 10.9493C8.68338 11.0534 8.13901 10.9995 7.64441 10.7942C7.14981 10.5889 6.7272 10.2415 6.43006 9.79601C6.13292 9.35051 5.97459 8.82688 5.9751 8.29137C5.97578 7.57386 6.26129 6.88598 6.76888 6.37887C7.27647 5.87176 7.96463 5.58691 8.68213 5.58691ZM13.9441 13.0635H18.4197V15.126H18.4816C19.1055 13.9452 20.6266 12.7 22.8979 12.7C27.6262 12.6896 28.5028 15.8014 28.5028 19.8362V28.0862H23.8338V20.7772C23.8338 19.037 23.8028 16.7966 21.4078 16.7966C19.0127 16.7966 18.6053 18.6941 18.6053 20.6638V28.0862H13.9441V13.0635Z"
            fill="white"
          />
        </g>
        <defs>
          <clipPath id="clip0_488_824">
            <rect width="33" height="33" fill="white" transform="translate(0.916748 0.5)" />
          </clipPath>
        </defs>
      </svg>

