<svg width="45" height="48" viewBox="0 0 45 48" fill="none" xmlns="http://www.w3.org/2000/svg">
<path d="M44.0402 10.1281C44.3323 10.2975 44.5747 10.5413 44.743 10.8348C44.9113 11.1283 44.9996 11.4613 44.9989 11.8V22.7705H44.8812C42.1592 22.7713 39.4636 22.2331 36.9487 21.1867C34.4339 20.1403 32.149 18.6062 30.2247 16.6722C28.3005 14.7382 26.7746 12.4421 25.7343 9.91526C24.694 7.38844 24.1598 4.68043 24.1621 1.94606C24.162 1.60662 24.251 1.27314 24.42 0.97921C24.589 0.685282 24.8321 0.441287 25.1249 0.271781C25.4177 0.102276 25.7497 0.0132493 26.0876 0.0136734C26.4256 0.0140974 26.7574 0.103958 27.0497 0.274197L44.0402 10.1281Z" fill="#4E4EBC"/>
<path d="M44.9989 24.4424V35.4129C44.9996 35.7516 44.9113 36.0846 44.743 36.3781C44.5747 36.6716 44.3323 36.9154 44.0402 37.0848L27.0497 46.9387C26.7611 47.109 26.4332 47.2003 26.0985 47.2037C25.7639 47.2071 25.4341 47.1225 25.1421 46.9582C24.8501 46.794 24.606 46.5558 24.4341 46.2673C24.2622 45.9789 24.1684 45.6503 24.1621 45.3141V45.2846C24.1613 42.5473 24.6975 39.8367 25.7399 37.3077C26.7824 34.7787 28.3107 32.4807 30.2375 30.5452C32.1643 28.6097 34.4519 27.0745 36.9696 26.0273C39.4873 24.9802 42.1857 24.4416 44.9106 24.4424H44.9989Z" fill="#4E4EBC"/>
<path d="M20.8426 1.90467C20.8449 4.6429 20.3099 7.35475 19.2682 9.88515C18.2264 12.4155 16.6984 14.7149 14.7714 16.6516C12.8444 18.5884 10.5563 20.1247 8.03784 21.1725C5.5194 22.2204 2.82004 22.7594 0.0941037 22.7586H4.11476e-06V11.7999C-0.000694441 11.4612 0.087563 11.1283 0.25587 10.8347C0.424178 10.5412 0.666584 10.2975 0.958625 10.1281L17.9844 0.25644C18.2742 0.0883423 18.603 -0.000105492 18.9377 9.44244e-08C19.2724 0.000105681 19.6012 0.0887544 19.8909 0.257035C20.1806 0.425315 20.4211 0.667291 20.5882 0.958602C20.7553 1.24991 20.843 1.58029 20.8426 1.91648V1.90467Z" fill="#4E4EBC"/>
<path d="M20.8426 45.2846V45.3141C20.8363 45.6503 20.7425 45.9789 20.5706 46.2673C20.3987 46.5557 20.1546 46.7939 19.8626 46.9582C19.5706 47.1225 19.2408 47.2071 18.9062 47.2037C18.5715 47.2003 18.2436 47.1089 17.955 46.9387L0.958625 37.0848C0.666584 36.9154 0.424178 36.6716 0.255871 36.3781C0.0875631 36.0846 -0.000694441 35.7516 4.11476e-06 35.4129V24.4424H0.0941037C5.59695 24.4424 10.8744 26.6383 14.7655 30.5469C18.6566 34.4556 20.8426 39.7569 20.8426 45.2846Z" fill="#4E4EBC"/>
</svg>
