<svg width="21" height="24" viewBox="0 0 21 24" fill="none" xmlns="http://www.w3.org/2000/svg">
<path d="M6.24403 21.4783C6.7517 22.1111 7.39861 22.6219 8.1359 22.9721C8.87319 23.3223 9.68157 23.5028 10.5 23.5C11.3184 23.5028 12.1268 23.3223 12.8641 22.9721C13.6014 22.6219 14.2483 22.1111 14.756 21.4783C11.9316 21.8557 9.06843 21.8557 6.24403 21.4783ZM18.3749 8.54999V9.35959C18.3749 10.3313 18.6549 11.2812 19.1823 12.0897L20.4749 14.0711C21.6544 15.8812 20.7538 18.3411 18.7016 18.9126C13.3394 20.4099 7.66064 20.4099 2.29839 18.9126C0.246237 18.3411 -0.654423 15.8812 0.525069 14.0711L1.81773 12.0897C2.34689 11.2747 2.62751 10.3272 2.62622 9.35959V8.54999C2.62622 4.10409 6.15186 0.5 10.5 0.5C14.8481 0.5 18.3749 4.10409 18.3749 8.54999Z" fill="black" fill-opacity="0.8"/>
</svg>
